# Blender v2.93.2 OBJ File: 'tributton.blend'
# www.blender.org
mtllib triangle.mtl
o Cube_Cube.005
v -0.000000 0.222008 0.417413
v -0.137640 0.217917 0.417413
v -0.269990 0.205803 0.417413
v -0.391965 0.186131 0.417413
v -0.498877 0.159657 0.417413
v -0.586618 0.127399 0.417413
v -0.651814 0.090595 0.417413
v -0.691962 0.050661 0.417413
v 0.691962 0.050661 0.417413
v 0.651814 0.090595 0.417413
v 0.586617 0.127399 0.417413
v 0.498876 0.159658 0.417413
v 0.391964 0.186132 0.417413
v 0.269989 0.205803 0.417413
v 0.137639 0.217917 0.417413
v 0.701962 0.020025 0.417413
v 0.181514 0.020025 -0.510381
v -0.181516 0.020025 -0.510379
v -0.701963 0.020025 0.417413
v 0.087167 0.020025 -0.672110
v 0.054036 0.020025 -0.724449
v -0.054036 0.020025 -0.724449
v -0.087167 0.020025 -0.672109
v -0.036106 0.020025 -0.749277
v 0.036106 0.020025 -0.749277
v 0.024125 0.020025 -0.762892
v 0.014955 0.020025 -0.770635
v -0.014956 0.020025 -0.770635
v -0.024125 0.020025 -0.762892
v -0.007182 0.020025 -0.774677
v -0.000000 0.020025 -0.775938
v 0.007182 0.020025 -0.774677
vn -0.0293 0.9856 -0.1668
vn -0.0898 0.9809 -0.1727
vn -0.1565 0.9701 -0.1853
vn -0.2352 0.9497 -0.2069
vn -0.3348 0.9107 -0.2418
vn -0.4694 0.8315 -0.2971
vn -0.6522 0.6557 -0.3805
vn -0.8388 0.2738 -0.4705
vn 0.6522 0.6557 -0.3805
vn 0.4694 0.8315 -0.2971
vn 0.3348 0.9107 -0.2418
vn 0.2352 0.9497 -0.2069
vn 0.1565 0.9701 -0.1853
vn 0.0898 0.9809 -0.1727
vn 0.0293 0.9856 -0.1668
vn -0.0000 0.0000 1.0000
vn 0.8388 0.2738 -0.4705
vn -0.0000 -1.0000 -0.0000
usemtl None
s off
f 1//1 31//1 30//1 2//1
f 2//2 30//2 28//2 3//2
f 3//3 28//3 29//3 4//3
f 4//4 29//4 24//4 5//4
f 5//5 24//5 22//5 6//5
f 6//6 22//6 23//6 7//6
f 7//7 23//7 18//7 8//7
f 8//8 18//8 19//8
f 9//9 17//9 20//9 10//9
f 10//10 20//10 21//10 11//10
f 11//11 21//11 25//11 12//11
f 12//12 25//12 26//12 13//12
f 13//13 26//13 27//13 14//13
f 14//14 27//14 32//14 15//14
f 15//15 32//15 31//15 1//15
f 1//16 2//16 3//16 4//16 5//16 6//16 7//16 8//16 19//16 16//16 9//16 10//16 11//16 12//16 13//16 14//16 15//16
f 16//17 17//17 9//17
f 19//18 18//18 23//18 22//18 24//18 29//18 28//18 30//18 31//18 32//18 27//18 26//18 25//18 21//18 20//18 17//18 16//18
o Circle_Circle.004
v 0.000000 0.000000 -1.000000
v -0.866025 0.000000 0.500000
v 0.866025 0.000000 0.500000
v 0.000000 0.018371 -1.000000
v -0.866025 0.018371 0.500000
v 0.866025 0.018371 0.500000
vn 0.0000 -1.0000 0.0000
vn 0.0000 1.0000 -0.0000
vn 0.8660 0.0000 -0.5000
vn 0.0000 0.0000 1.0000
vn -0.8660 0.0000 -0.5000
usemtl None
s off
f 34//19 33//19 35//19
f 37//20 38//20 36//20
f 35//21 33//21 36//21 38//21
f 34//22 35//22 38//22 37//22
f 33//23 34//23 37//23 36//23
